<svg xmlns="http://www.w3.org/2000/svg" viewBox="0 0 488.96 121.6"><defs><style>.cls-1{fill:#4d4d4d;}.cls-2{fill:#f15a24;}</style></defs><g id="Layer_2" data-name="Layer 2"><g id="Layer_1-2" data-name="Layer 1"><path class="cls-1" d="M156.6,93.84V26.25q0-4.93,3.39-4.94a3.8,3.8,0,0,1,1.84.56v14.4a26.71,26.71,0,0,1,8.89-11.44,23.13,23.13,0,0,1,14.11-4.37q10.86,0,17.28,7.06t6.42,19.05V89.46c0,3.3-1.13,4.94-3.38,4.94a3.8,3.8,0,0,1-1.84-.56V46.57q0-10-5-15.88t-13.47-5.86a19.35,19.35,0,0,0-12.14,4,25.48,25.48,0,0,0-8,11.22,45.17,45.17,0,0,0-2.82,16.65V89.46c0,3.3-1.13,4.94-3.39,4.94A3.8,3.8,0,0,1,156.6,93.84Z"/><path class="cls-1" d="M248.45,88.33q0,2.42-3,4.24A14.14,14.14,0,0,1,238,94.4q-5.64,0-8.68-3.45t-3-9.81v-55H216a3.44,3.44,0,0,1-.43-1.56,2.26,2.26,0,0,1,1.06-2,5.49,5.49,0,0,1,3-.71h6.63V8.47c0-3.3,1.13-4.94,3.38-4.94a3.8,3.8,0,0,1,1.84.56V21.87H248a3.58,3.58,0,0,1,.42,1.55,2.24,2.24,0,0,1-1.06,2,5.43,5.43,0,0,1-3,.71H231.52V80.57c0,3.11.58,5.48,1.76,7.13a6.07,6.07,0,0,0,5.29,2.47,8.37,8.37,0,0,0,7.62-4.09A2,2,0,0,1,248.45,88.33Z"/><path class="cls-1" d="M266.61,90.73a29.58,29.58,0,0,1-10.94-13q-3.87-8.46-3.88-20A48.77,48.77,0,0,1,255.46,38a29.5,29.5,0,0,1,10.44-13,27.75,27.75,0,0,1,16-4.59q13.26,0,20.81,9.24t7.55,24.63a16.94,16.94,0,0,1-.56,4.79H257.16q.27,14.68,7.19,23.29T283.26,91q12.42,0,22-9.32a3.05,3.05,0,0,1,2.12.64,1.93,1.93,0,0,1,.71,1.48q0,1.83-3.39,4.59a31.16,31.16,0,0,1-9,4.79,36,36,0,0,1-12.42,2A30.12,30.12,0,0,1,266.61,90.73Zm38.24-36.4q-.57-13.83-6.49-21.73t-16.79-7.91q-11.29,0-17.71,8.33t-6.7,22.15Z"/><path class="cls-1" d="M328.46,93.34a25.56,25.56,0,0,1-8.26-4.51q-3-2.61-3-4.16c0-1.7.94-2.54,2.82-2.54a26.9,26.9,0,0,0,20,8.89q8,0,12.91-4.24a14.19,14.19,0,0,0,4.87-11.29,13.24,13.24,0,0,0-4.31-10.09q-4.31-4-14.88-7.55-11.16-3.8-15.74-8.32a15.21,15.21,0,0,1-4.58-11.29q0-8.18,5.64-13t15.1-4.8a30.82,30.82,0,0,1,11.15,1.91,25.11,25.11,0,0,1,7.83,4.51Q361,29.49,361,31c0,1.7-.94,2.54-2.82,2.54a27,27,0,0,0-8.47-6.7,23,23,0,0,0-10.16-2.19q-7.47,0-11.64,3.53a11.79,11.79,0,0,0-4.16,9.46,11.31,11.31,0,0,0,4.37,9.1q4.38,3.6,15.39,7.41,10.71,3.81,15.23,8.6t4.52,12.42q0,9.45-6.07,14.75t-16.79,5.29A35,35,0,0,1,328.46,93.34Z"/><path class="cls-1" d="M402.19,88.33c0,1.61-1,3-3,4.24a14.09,14.09,0,0,1-7.41,1.83q-5.64,0-8.67-3.45t-3-9.81v-55h-10.3a3.55,3.55,0,0,1-.42-1.56,2.23,2.23,0,0,1,1.06-2,5.43,5.43,0,0,1,3-.71H380V8.47c0-3.3,1.13-4.94,3.39-4.94a3.8,3.8,0,0,1,1.83.56V21.87h16.51a3.61,3.61,0,0,1,.43,1.55,2.26,2.26,0,0,1-1.06,2,5.49,5.49,0,0,1-3,.71H385.25V80.57c0,3.11.59,5.48,1.77,7.13a6.06,6.06,0,0,0,5.29,2.47,8.37,8.37,0,0,0,7.62-4.09A2,2,0,0,1,402.19,88.33Z"/><path class="cls-1" d="M412.27,6.56a3.73,3.73,0,0,1-1.06-2.75,3.73,3.73,0,0,1,1.06-2.75A3.73,3.73,0,0,1,415,0a4,4,0,0,1,2.82,1.06A3.6,3.6,0,0,1,419,3.81a3.6,3.6,0,0,1-1.13,2.75A4,4,0,0,1,415,7.62,3.73,3.73,0,0,1,412.27,6.56Zm.22,87.28V26.25c0-3.29,1.12-4.94,3.38-4.94a3.8,3.8,0,0,1,1.84.56V89.46c0,3.3-1.13,4.94-3.39,4.94A3.74,3.74,0,0,1,412.49,93.84Z"/><path class="cls-1" d="M445.36,90.73a29.49,29.49,0,0,1-10.93-13q-3.89-8.46-3.88-20A49,49,0,0,1,434.21,38a29.45,29.45,0,0,1,10.45-13,27.72,27.72,0,0,1,15.94-4.59q13.26,0,20.82,9.24T489,54.33a16.58,16.58,0,0,1-.56,4.79H435.91q.29,14.68,7.19,23.29T462,91q12.42,0,22-9.32a3,3,0,0,1,2.11.64,1.93,1.93,0,0,1,.71,1.48q0,1.83-3.39,4.59a31.16,31.16,0,0,1-9,4.79,36,36,0,0,1-12.42,2A30.17,30.17,0,0,1,445.36,90.73Zm38.24-36.4Q483,40.5,477.11,32.6t-16.79-7.91Q449,24.69,442.61,33t-6.7,22.15Z"/><path class="cls-1" d="M17,94.44A34.55,34.55,0,0,1,4.48,79.63Q0,70,0,57.22T4.48,34.81A34.58,34.58,0,0,1,17,20a33,33,0,0,1,18.41-5.2,38.86,38.86,0,0,1,13.28,2.24,37,37,0,0,1,10.08,5.2c2.57,2,3.85,3.55,3.85,4.72q0,2.88-3.2,2.88Q49,19.6,35.38,19.61q-13.77,0-21.53,10.08T6.08,57.22q0,17.46,7.77,27.54T35.38,94.84q13.59,0,24-10.24,3.2,0,3.2,2.88c0,1.17-1.28,2.75-3.85,4.72a37,37,0,0,1-10.08,5.2,39.1,39.1,0,0,1-13.28,2.24A33,33,0,0,1,17,94.44Z"/><path class="cls-2" d="M132.52,86A38.22,38.22,0,1,0,80.9,86L68.62,118.73a2.13,2.13,0,0,0,2.94,2.65l15.89-7.95,11.71,7.81a2.12,2.12,0,0,0,3.17-1L107,107.85l4.1,12.3a2.17,2.17,0,0,0,1.33,1.33,2.11,2.11,0,0,0,1.87-.24L126,113.43l15.89,7.94a2,2,0,0,0,.95.23,2.13,2.13,0,0,0,1.42-.55,2.1,2.1,0,0,0,.56-2.32Zm-27.8,15.74-5.43,14.49-10.51-7a2.11,2.11,0,0,0-2.13-.13L74.5,115.16l9.87-26.32A38,38,0,0,0,103,95.93l1.87,5.6A1.53,1.53,0,0,0,104.72,101.74Zm2-9.87a34,34,0,1,1,34-34A34,34,0,0,1,106.71,91.87Zm20.06,17.21a2.14,2.14,0,0,0-2.13.13l-10.43,7-6.69-20.1a37.94,37.94,0,0,0,21.53-7.23l9.87,26.32Z"/></g></g></svg>